<?xml version="1.0" standalone="no"?>
<!DOCTYPE svg PUBLIC "-//W3C//DTD SVG 20010904//EN"
 "http://www.w3.org/TR/2001/REC-SVG-20010904/DTD/svg10.dtd">
<svg version="1.0" xmlns="http://www.w3.org/2000/svg"
 width="1280.000000pt" height="924.000000pt" viewBox="0 0 1280.000000 924.000000"
 preserveAspectRatio="xMidYMid meet">
<metadata>
Created by potrace 1.15, written by Peter Selinger 2001-2017
</metadata>
<g transform="translate(0.000000,924.000000) scale(0.100000,-0.100000)"
fill="#000000" stroke="none">
<path d="M6137 9225 c-116 -16 -282 -56 -375 -91 -52 -20 -67 -23 -71 -12 -8
26 -63 68 -102 78 -113 31 -223 -80 -190 -191 16 -52 3 -69 -53 -69 -52 0
-107 -35 -130 -83 -9 -19 -16 -40 -16 -46 0 -6 -34 -46 -76 -89 -148 -150
-259 -320 -340 -520 -39 -98 -45 -107 -73 -113 -73 -15 -121 -75 -121 -152 0
-56 18 -96 57 -127 l27 -21 -3 -672 -3 -671 -66 -75 c-70 -80 -153 -204 -194
-286 -54 -108 -117 -312 -118 -376 0 -24 -4 -27 -52 -33 -112 -13 -263 -7
-329 14 -172 53 -294 193 -293 335 0 49 7 73 34 124 46 86 135 172 218 213 63
31 74 33 172 33 113 0 143 -10 189 -59 49 -53 83 -19 62 62 -18 66 -70 133
-126 162 -44 22 -61 25 -160 24 -134 0 -241 -26 -365 -86 -90 -44 -171 -116
-220 -195 -23 -37 -28 -40 -67 -39 -35 1 -48 -5 -77 -33 -120 -117 -121 -380
-1 -448 33 -18 41 -30 60 -91 12 -39 40 -103 62 -144 36 -68 38 -75 25 -101
-41 -85 69 -220 217 -267 75 -24 119 -25 168 -5 31 13 41 13 85 0 27 -8 98
-22 156 -30 59 -9 108 -18 110 -20 6 -6 -140 -101 -213 -138 -146 -73 -194
-82 -435 -81 -465 1 -657 83 -849 363 -122 179 -161 290 -168 486 -10 271 48
480 267 955 194 419 246 556 276 720 9 47 25 125 36 174 18 79 19 97 9 155
-22 119 -80 207 -157 242 -23 11 -66 42 -95 69 -58 55 -221 167 -254 176 -11
3 -27 20 -35 37 -31 67 -166 96 -229 49 -17 -12 -44 -22 -60 -22 -138 0 -322
-97 -450 -236 -75 -82 -117 -164 -138 -273 -15 -75 -15 -90 -1 -169 21 -120
41 -156 123 -225 116 -97 188 -123 201 -72 8 32 0 72 -37 192 -35 114 -37 180
-8 240 94 195 424 191 506 -6 23 -54 17 -159 -12 -248 -48 -142 -146 -296
-372 -583 -172 -219 -218 -288 -311 -470 -41 -80 -80 -145 -86 -146 -6 0 -19
-2 -28 -2 -32 -3 -97 -73 -128 -136 -60 -123 -74 -272 -32 -356 19 -39 19 -40
-4 -157 -25 -134 -44 -303 -44 -406 0 -68 0 -69 -44 -112 -111 -108 -116 -349
-12 -561 77 -155 178 -237 292 -238 l61 -1 57 -70 c77 -94 225 -244 311 -315
139 -113 333 -221 490 -271 43 -13 84 -35 107 -55 48 -43 99 -69 175 -88 112
-29 254 -14 314 33 20 15 49 20 164 25 142 7 421 29 529 42 l60 7 -40 -34
c-116 -103 -233 -169 -350 -200 -140 -36 -293 -36 -659 1 -288 29 -342 32
-535 27 -240 -6 -334 -21 -513 -81 -197 -66 -327 -143 -538 -320 -64 -55 -134
-102 -186 -128 -77 -38 -90 -42 -186 -46 -238 -10 -436 78 -512 229 -50 97
-70 271 -43 362 37 123 179 157 377 91 40 -14 75 -23 78 -21 2 2 -31 37 -73
77 -87 82 -165 124 -262 139 -285 45 -508 -205 -489 -549 14 -243 135 -460
335 -599 21 -15 32 -31 32 -47 0 -30 59 -97 115 -129 66 -39 175 -60 241 -46
31 6 67 19 82 29 22 15 51 20 147 25 186 8 281 42 760 272 181 87 300 130 401
145 90 13 174 13 174 0 0 -6 18 -30 40 -53 96 -105 305 -153 449 -104 38 13
47 12 148 -18 163 -50 334 -75 555 -81 149 -5 206 -11 250 -25 151 -50 378 -1
529 113 24 18 70 49 102 68 32 19 83 57 113 83 30 27 54 47 54 45 0 -3 -11
-36 -24 -74 -59 -170 -127 -284 -221 -373 -36 -33 -75 -65 -87 -71 -18 -9 -16
-6 5 10 15 12 25 26 22 31 -4 5 2 6 11 2 13 -5 15 -3 9 7 -5 8 -4 11 2 7 6 -4
18 2 28 13 14 16 2 13 -57 -14 -232 -108 -393 -99 -658 34 -45 22 -86 38 -92
34 -6 -4 -8 -3 -5 3 8 13 -134 102 -160 100 l-21 -1 20 -26 c51 -65 201 -220
251 -259 73 -56 183 -95 252 -88 l50 5 -55 -19 c-65 -23 -301 -69 -535 -104
-556 -84 -727 -116 -897 -171 -59 -19 -144 -53 -189 -75 l-81 -41 -32 22 -31
21 27 -25 28 -25 -48 -34 c-74 -55 -194 -185 -250 -269 -159 -245 -209 -564
-137 -883 32 -143 79 -238 157 -318 51 -52 61 -68 62 -100 7 -142 300 -253
434 -164 36 23 43 24 152 20 188 -8 298 24 388 114 122 122 149 316 68 489
-41 87 -120 209 -149 229 -19 13 -23 13 -36 0 -24 -24 -25 -120 -2 -232 27
-131 27 -197 2 -222 -26 -26 -79 -35 -155 -27 -132 13 -227 71 -282 171 -41
74 -55 134 -55 243 0 71 4 93 26 138 49 99 177 207 304 255 129 48 199 60 425
69 l219 9 42 -38 c60 -56 128 -76 250 -75 149 0 258 47 307 130 22 37 8 34
233 64 241 33 500 79 618 111 36 10 42 8 66 -15 54 -52 160 -60 287 -22 52 16
86 21 101 15 35 -13 404 -57 587 -70 225 -15 634 -7 736 16 191 42 344 110
549 244 69 45 173 105 233 134 59 29 108 55 108 59 0 4 -15 -1 -32 -12 -18
-11 -37 -20 -43 -20 -5 1 7 10 28 21 l38 20 -17 27 c-60 93 -68 102 -88 103
-21 0 -21 1 -1 9 34 15 -4 11 -95 -9 -97 -22 -153 -43 -440 -169 -252 -110
-313 -130 -450 -142 -132 -11 -402 2 -586 29 -144 22 -314 59 -314 69 0 4 30
36 66 72 110 109 258 317 353 496 40 74 85 145 76 119 -4 -11 -8 -27 -9 -35 0
-8 -4 -17 -8 -20 -11 -9 325 -118 447 -145 230 -52 546 -97 784 -111 l113 -7
-11 22 c-7 11 -10 21 -7 21 5 0 93 -149 102 -175 12 -31 83 -136 120 -175 18
-19 43 -62 55 -95 28 -75 125 -175 215 -223 117 -61 257 -77 334 -37 36 19 36
19 200 -18 141 -31 372 -70 585 -98 159 -20 159 -21 200 -58 106 -98 268 -126
440 -76 11 3 4 -2 -15 -11 -54 -25 -186 -30 -269 -10 -64 16 -74 16 -130 1
-121 -31 -411 -137 -404 -148 3 -6 1 -7 -5 -3 -7 4 -75 -13 -151 -38 -234 -77
-284 -86 -496 -93 -271 -8 -652 20 -905 68 -58 11 -215 49 -350 84 -374 98
-534 125 -860 145 -422 26 -757 -1 -1085 -85 -217 -56 -619 -200 -608 -218 3
-6 1 -7 -5 -3 -7 4 -68 -11 -137 -34 -184 -60 -295 -76 -420 -62 -198 22 -417
95 -665 222 -153 79 -153 80 65 -98 225 -183 306 -219 577 -257 340 -48 814
11 1276 159 282 90 336 101 517 100 179 0 299 -19 621 -98 454 -112 763 -158
1319 -197 235 -17 794 -17 915 -1 277 38 458 97 758 248 391 197 730 302 1044
323 170 11 256 -21 387 -145 89 -83 115 -136 119 -240 11 -228 -94 -382 -286
-423 -129 -27 -215 -4 -227 61 -4 20 3 76 16 138 28 130 31 252 8 276 -15 15
-19 14 -47 -13 -17 -15 -56 -68 -86 -116 -117 -188 -134 -347 -54 -500 53 -99
151 -171 266 -196 60 -12 209 -13 291 -2 40 6 62 4 83 -6 39 -20 142 -19 209
0 100 30 199 114 199 170 0 11 29 50 64 87 74 79 109 146 142 276 105 416 -3
829 -287 1100 -212 201 -445 279 -1149 384 -606 90 -807 136 -1006 231 -100
47 -171 102 -222 171 -45 63 -86 128 -79 128 3 0 15 -17 28 -37 42 -70 49 -75
78 -57 l26 15 -24 -20 c-28 -25 -20 -27 14 -5 14 9 23 20 20 24 -3 5 0 12 6
16 8 4 9 3 5 -4 -11 -18 -6 -16 78 32 l78 45 -61 30 c-34 17 -61 34 -61 36 0
3 32 -11 70 -30 39 -19 70 -33 70 -31 0 2 23 -2 52 -9 82 -22 177 -28 243 -16
33 7 132 12 220 11 288 -1 512 25 705 82 87 26 120 31 195 29 141 -3 245 32
329 110 41 37 47 39 128 45 183 14 301 -20 657 -190 395 -188 533 -236 684
-236 37 0 81 -7 103 -16 92 -39 256 1 349 84 23 20 70 53 105 72 331 185 482
621 326 945 -63 131 -152 203 -286 231 -146 30 -290 -19 -412 -142 -37 -37
-66 -69 -65 -70 2 -2 39 9 82 23 61 20 101 27 171 27 82 1 94 -1 131 -26 52
-35 76 -86 81 -175 8 -150 -36 -289 -119 -372 -92 -92 -271 -147 -451 -139
-91 5 -105 8 -181 46 -51 26 -125 77 -197 137 -63 53 -147 118 -185 144 -149
102 -338 179 -545 222 -104 22 -139 24 -380 24 -218 0 -300 -5 -465 -25 -253
-30 -533 -34 -638 -7 -146 37 -283 120 -439 267 -82 76 -105 106 -75 95 26
-10 351 -36 529 -42 l186 -6 7 -34 c25 -135 259 -183 455 -92 107 49 167 124
158 195 -3 24 4 29 105 74 194 86 415 253 573 429 l67 75 49 -3 c143 -8 292
158 349 389 29 115 24 251 -13 331 -24 53 -25 60 -17 160 9 106 -2 330 -21
444 -14 83 -13 89 12 100 12 6 31 26 43 45 30 52 29 200 -3 293 -46 132 -123
213 -193 204 l-37 -5 -28 67 c-89 213 -188 383 -332 569 -306 394 -378 503
-433 652 -55 149 -43 277 33 346 71 65 190 89 293 60 45 -14 69 -29 111 -70
86 -86 92 -145 35 -330 -60 -194 -30 -238 102 -148 148 102 186 169 195 339 4
84 1 113 -16 170 -59 194 -261 377 -475 433 -40 10 -85 23 -100 29 -46 18
-119 13 -162 -10 -22 -11 -64 -29 -94 -40 -152 -54 -319 -178 -434 -324 -21
-27 -52 -58 -67 -68 -34 -21 -83 -95 -106 -157 -9 -26 -17 -77 -17 -120 -1
-86 17 -132 64 -158 16 -10 29 -22 29 -28 0 -28 55 -196 100 -309 26 -67 94
-221 151 -341 218 -469 283 -671 295 -919 11 -221 -31 -372 -158 -562 -122
-183 -241 -279 -403 -328 -109 -33 -169 -42 -347 -56 -228 -17 -361 0 -498 64
l-65 30 98 18 c55 9 106 20 115 24 10 4 54 13 99 20 148 24 249 89 300 193 15
31 42 78 60 103 57 80 123 253 123 321 0 9 12 40 27 69 24 46 28 65 28 139 0
109 -23 177 -79 236 -24 24 -52 44 -63 44 -12 0 -40 24 -72 63 -63 75 -136
126 -228 160 -225 85 -418 88 -515 7 -45 -37 -88 -121 -88 -172 0 -52 20 -57
71 -18 55 44 101 59 182 60 79 0 170 -27 232 -70 62 -43 136 -128 169 -195 66
-136 4 -293 -157 -397 -78 -50 -153 -68 -283 -68 -110 0 -114 1 -118 23 -43
208 -64 273 -129 402 -81 163 -220 334 -341 420 l-56 40 0 237 0 237 25 27
c55 59 55 147 1 211 -23 28 -24 32 -29 303 -5 296 -15 372 -73 546 -27 82
-120 284 -147 319 -14 18 -14 23 3 50 71 114 -18 256 -151 241 l-47 -5 -17 45
c-20 54 -71 91 -132 97 -27 2 -55 15 -80 35 -21 17 -77 54 -123 83 -331 205
-763 297 -1153 244z m350 -5291 c64 -31 118 -90 149 -160 32 -72 79 -262 104
-420 43 -263 68 -355 173 -629 75 -197 107 -288 103 -293 -2 -2 -10 11 -16 30
l-12 33 -137 27 c-134 26 -180 41 -492 151 -85 31 -211 68 -280 83 -68 15
-125 28 -127 29 -2 2 13 54 32 116 20 62 56 214 81 338 100 499 155 629 295
699 57 28 65 28 127 -4z m1707 -949 c34 -44 69 -83 197 -215 19 -19 50 -48 69
-63 27 -22 24 -20 -13 4 -26 18 -53 39 -58 45 -6 7 -18 10 -27 7 -15 -4 -15
-3 -2 7 23 17 -27 2 -70 -22 -19 -10 -26 -17 -15 -14 18 5 18 5 4 -6 -9 -7
-14 -20 -11 -28 2 -8 -5 -1 -15 15 -25 38 -55 118 -83 220 -12 44 -24 89 -27
100 -6 23 -1 19 51 -50z m-2225 -222 c-10 -2 -27 -30 -39 -64 -13 -33 -24 -58
-26 -56 -2 2 6 31 19 65 17 49 26 62 42 61 15 -1 16 -2 4 -6z m91 -13 c20 -6
21 -8 5 -8 -11 0 -29 3 -40 8 -25 11 1 11 35 0z m2270 0 c-8 -5 -19 -10 -25
-10 -5 0 -3 5 5 10 8 5 20 10 25 10 6 0 3 -5 -5 -10z m-2185 -20 c13 -5 14 -9
5 -9 -8 0 -24 4 -35 9 -13 5 -14 9 -5 9 8 0 24 -4 35 -9z m75 -20 c18 -12 2
-12 -25 0 -13 6 -15 9 -5 9 8 0 22 -4 30 -9z m65 -20 c13 -6 15 -9 5 -9 -8 0
-22 4 -30 9 -18 12 -2 12 25 0z m55 -20 c8 -5 11 -10 5 -10 -5 0 -17 5 -25 10
-8 5 -10 10 -5 10 6 0 17 -5 25 -10z m60 -20 c8 -5 11 -10 5 -10 -5 0 -17 5
-25 10 -8 5 -10 10 -5 10 6 0 17 -5 25 -10z m1894 -6 c3 -8 2 -12 -4 -9 -6 3
-10 10 -10 16 0 14 7 11 14 -7z m-1844 -14 c8 -5 11 -10 5 -10 -5 0 -17 5 -25
10 -8 5 -10 10 -5 10 6 0 17 -5 25 -10z m-564 -37 c-8 -15 -15 -25 -16 -21 0
12 23 58 27 54 3 -2 -2 -17 -11 -33z m2713 13 c-2 -2 -15 -9 -29 -15 -24 -11
-24 -11 -6 3 16 13 49 24 35 12z m-2039 -16 c8 -5 11 -10 5 -10 -5 0 -17 5
-25 10 -8 5 -10 10 -5 10 6 0 17 -5 25 -10z m-3166 -56 c31 -20 56 -39 56 -41
0 -5 -14 3 -68 40 -24 16 -46 27 -48 24 -3 -3 20 -32 52 -66 31 -33 54 -61 50
-61 -6 0 -84 83 -116 122 -20 26 -20 27 -1 23 10 -2 44 -20 75 -41z m3221 36
c13 -6 15 -9 5 -9 -8 0 -22 4 -30 9 -18 12 -2 12 25 0z m1925 5 c0 -2 -13 -11
-30 -20 -38 -19 -40 -11 -2 9 31 17 32 18 32 11z m-2689 -62 c-11 -21 -20 -35
-21 -31 0 12 33 78 38 74 2 -2 -6 -21 -17 -43z m834 37 c13 -5 14 -9 5 -9 -8
0 -24 4 -35 9 -13 5 -14 9 -5 9 8 0 24 -4 35 -9z m70 -20 c13 -5 14 -9 5 -9
-8 0 -24 4 -35 9 -13 5 -14 9 -5 9 8 0 24 -4 35 -9z m95 -20 c20 -6 21 -8 5
-8 -11 0 -31 4 -45 8 -20 6 -21 8 -5 8 11 0 31 -4 45 -8z m105 -20 c27 -7 27
-8 5 -8 -14 0 -36 4 -50 8 -20 6 -21 8 -5 8 11 0 34 -4 50 -8z m-3289 -108
c-5 -4 -186 86 -186 93 0 3 43 -16 95 -42 52 -26 93 -49 91 -51z m-164 -13
c29 -28 73 -64 97 -80 25 -16 40 -29 34 -29 -21 0 -210 158 -191 160 4 0 31
-23 60 -51z m3625 -176 c-5 -4 -107 213 -106 224 0 4 25 -43 55 -106 30 -63
53 -116 51 -118z m-2922 197 c-3 -5 -12 -10 -18 -10 -7 0 -6 4 3 10 19 12 23
12 15 0z m1665 0 c18 -12 2 -12 -25 0 -13 6 -15 9 -5 9 8 0 22 -4 30 -9z
m-1710 -20 c-8 -5 -19 -10 -25 -10 -5 0 -3 5 5 10 8 5 20 10 25 10 6 0 3 -5
-5 -10z m1770 0 c18 -12 2 -12 -25 0 -13 6 -15 9 -5 9 8 0 22 -4 30 -9z
m-2145 -20 c13 -5 14 -9 5 -9 -8 0 -24 4 -35 9 -13 5 -14 9 -5 9 8 0 24 -4 35
-9z m315 0 c-8 -5 -22 -9 -30 -9 -10 0 -8 3 5 9 27 12 43 12 25 0z m1890 0
c18 -12 2 -12 -25 0 -13 6 -15 9 -5 9 8 0 22 -4 30 -9z m-1820 -5 c0 -15 -269
-126 -303 -124 -7 0 35 17 93 38 58 21 128 49 155 64 56 29 55 29 55 22z
m-142 -17 c-13 -3 -54 -6 -93 -6 -38 0 -80 3 -93 6 -13 4 29 7 93 7 64 0 106
-3 93 -7z m2087 -18 c13 -5 14 -9 5 -9 -8 0 -24 4 -35 9 -13 5 -14 9 -5 9 8 0
24 -4 35 -9z m70 -20 c13 -5 14 -9 5 -9 -8 0 -24 4 -35 9 -13 5 -14 9 -5 9 8
0 24 -4 35 -9z m62 -16 c-3 -3 -12 -4 -19 -1 -8 3 -5 6 6 6 11 1 17 -2 13 -5z
m40 -10 c-3 -3 -12 -4 -19 -1 -8 3 -5 6 6 6 11 1 17 -2 13 -5z m83 -14 c20 -6
21 -8 5 -8 -11 0 -31 4 -45 8 -20 6 -21 8 -5 8 11 0 31 -4 45 -8z m-2615 -20
c13 -5 14 -9 5 -9 -8 0 -24 4 -35 9 -13 5 -14 9 -5 9 8 0 24 -4 35 -9z m2715
0 c20 -6 21 -8 5 -8 -11 0 -31 4 -45 8 -20 6 -21 8 -5 8 11 0 31 -4 45 -8z
m125 -20 c27 -7 27 -8 5 -8 -14 0 -38 4 -55 8 -27 7 -27 8 -5 8 14 0 39 -4 55
-8z m103 -17 c-10 -2 -26 -2 -35 0 -10 3 -2 5 17 5 19 0 27 -2 18 -5z m65 -10
c-7 -2 -21 -2 -30 0 -10 3 -4 5 12 5 17 0 24 -2 18 -5z m110 -10 c-13 -2 -33
-2 -45 0 -13 2 -3 4 22 4 25 0 35 -2 23 -4z m90 -10 c-13 -2 -33 -2 -45 0 -13
2 -3 4 22 4 25 0 35 -2 23 -4z m150 -10 c-13 -2 -35 -2 -50 0 -16 2 -5 4 22 4
28 0 40 -2 28 -4z m54 -179 c-3 -3 -12 -4 -19 -1 -8 3 -5 6 6 6 11 1 17 -2 13
-5z m-40 -10 c-3 -3 -12 -4 -19 -1 -8 3 -5 6 6 6 11 1 17 -2 13 -5z m-177 -54
c-8 -5 -19 -10 -25 -10 -5 0 -3 5 5 10 8 5 20 10 25 10 6 0 3 -5 -5 -10z m-95
-40 c-3 -5 -12 -10 -18 -10 -7 0 -6 4 3 10 19 12 23 12 15 0z m-45 -20 c-8 -5
-19 -10 -25 -10 -5 0 -3 5 5 10 8 5 20 10 25 10 6 0 3 -5 -5 -10z m-45 -20
c-3 -5 -12 -10 -18 -10 -7 0 -6 4 3 10 19 12 23 12 15 0z m-45 -20 c-8 -5 -19
-10 -25 -10 -5 0 -3 5 5 10 8 5 20 10 25 10 6 0 3 -5 -5 -10z m-45 -20 c-3 -5
-12 -10 -18 -10 -7 0 -6 4 3 10 19 12 23 12 15 0z m545 6 c0 -2 -7 -7 -16 -10
-8 -3 -12 -2 -9 4 6 10 25 14 25 6z m-590 -26 c-8 -5 -19 -10 -25 -10 -5 0 -3
5 5 10 8 5 20 10 25 10 6 0 3 -5 -5 -10z m550 6 c0 -2 -7 -7 -16 -10 -8 -3
-12 -2 -9 4 6 10 25 14 25 6z m-600 -26 c-8 -5 -19 -10 -25 -10 -5 0 -3 5 5
10 8 5 20 10 25 10 6 0 3 -5 -5 -10z m560 5 c0 -2 -13 -11 -30 -20 -38 -19
-40 -11 -2 9 31 17 32 18 32 11z m-1826 -87 c-29 -57 -119 -151 -175 -182 -43
-24 -29 -11 38 38 75 53 151 158 154 213 1 16 2 16 6 1 2 -9 -8 -40 -23 -70z
m101 62 c13 -5 14 -9 5 -9 -8 0 -24 4 -35 9 -13 5 -14 9 -5 9 8 0 24 -4 35 -9z
m1120 0 c-3 -5 -12 -10 -18 -10 -7 0 -6 4 3 10 19 12 23 12 15 0z m-1025 -20
c20 -6 21 -8 5 -8 -11 0 -31 4 -45 8 -20 6 -21 8 -5 8 11 0 31 -4 45 -8z m975
0 c-3 -5 -14 -10 -23 -9 -14 0 -13 2 3 9 27 11 27 11 20 0z m585 6 c0 -2 -12
-11 -27 -20 l-28 -17 24 20 c23 21 31 25 31 17z m-1411 -32 c8 -7 -54 -2 -79
6 -17 6 -9 7 25 3 28 -3 52 -7 54 -9z m771 6 c-8 -5 -22 -9 -30 -9 -10 0 -8 3
5 9 27 12 43 12 25 0z m-601 -26 c8 -7 -73 -2 -104 6 -19 5 -6 6 35 3 36 -3
67 -7 69 -9z m536 6 c-11 -5 -29 -8 -40 -8 -16 0 -15 2 5 8 34 11 60 11 35 0z
m-367 -17 c-21 -2 -55 -2 -75 0 -21 2 -4 4 37 4 41 0 58 -2 38 -4z m250 0
c-16 -2 -40 -2 -55 0 -16 2 -3 4 27 4 30 0 43 -2 28 -4z m-105 -10 c-13 -2
-35 -2 -50 0 -16 2 -5 4 22 4 28 0 40 -2 28 -4z m772 -32 c-14 -13 -132 -76
-122 -66 7 9 118 74 127 75 2 0 0 -4 -5 -9z m-135 -75 c0 -2 -7 -7 -16 -10 -8
-3 -12 -2 -9 4 6 10 25 14 25 6z m-50 -26 c-8 -5 -19 -10 -25 -10 -5 0 -3 5 5
10 8 5 20 10 25 10 6 0 3 -5 -5 -10z m-50 -20 c-8 -5 -19 -10 -25 -10 -5 0 -3
5 5 10 8 5 20 10 25 10 6 0 3 -5 -5 -10z m-50 -20 c-8 -5 -19 -10 -25 -10 -5
0 -3 5 5 10 8 5 20 10 25 10 6 0 3 -5 -5 -10z m-1457 -7 c-7 -2 -21 -2 -30 0
-10 3 -4 5 12 5 17 0 24 -2 18 -5z m112 -13 c42 -11 1 -11 -50 -1 -34 7 -35 9
-10 9 17 0 44 -4 60 -8z m1285 0 c-8 -5 -22 -9 -30 -9 -10 0 -8 3 5 9 27 12
43 12 25 0z m-1172 -17 c-10 -2 -26 -2 -35 0 -10 3 -2 5 17 5 19 0 27 -2 18
-5z m1102 -3 c-34 -11 -60 -11 -35 0 11 5 29 8 40 8 16 0 15 -2 -5 -8z m-1022
-7 c-10 -2 -28 -2 -40 0 -13 2 -5 4 17 4 22 1 32 -1 23 -4z m187 -13 c55 -6
56 -7 15 -8 -25 0 -70 3 -100 8 -47 6 -49 7 -15 8 22 0 67 -4 100 -8z m740 0
c-16 -4 -43 -8 -60 -8 -29 1 -29 1 5 8 19 4 46 7 60 8 22 0 22 -1 -5 -8z
m-242 -17 c-68 -2 -178 -2 -245 0 -68 1 -13 3 122 3 135 0 190 -2 123 -3z
m3472 -117 c17 -2 -11 -3 -62 -3 -77 0 -96 -4 -121 -22 -17 -11 -33 -21 -38
-21 -4 0 10 12 31 28 38 27 76 31 190 18z m375 -29 c54 -14 54 -14 15 -14 -22
0 -71 -2 -110 -6 l-70 -6 65 13 c73 15 71 16 -90 26 l-115 8 125 -4 c69 -1
150 -9 180 -17z m-4407 -34 c-51 -2 -135 -2 -185 0 -51 1 -10 3 92 3 102 0
143 -2 93 -3z m4192 -3 c-16 -4 -39 -8 -50 -8 -16 0 -15 2 5 8 14 4 36 8 50 8
22 0 22 -1 -5 -8z m-4518 -7 c-20 -2 -52 -2 -70 0 -17 2 0 4 38 4 39 0 53 -2
32 -4z m546 0 c-24 -2 -62 -2 -85 0 -24 2 -5 4 42 4 47 0 66 -2 43 -4z m3220
0 c-7 -2 -19 -2 -25 0 -7 3 -2 5 12 5 14 0 19 -2 13 -5z m-3943 -14 c-25 -4
-56 -7 -70 -7 -38 1 37 15 80 15 32 0 31 0 -10 -8z m935 1 c40 -6 43 -7 15 -8
-19 0 -57 3 -85 8 -40 6 -43 7 -15 8 19 0 58 -3 85 -8z m2950 0 c-11 -5 -27
-9 -35 -9 -9 0 -8 4 5 9 11 5 27 9 35 9 9 0 8 -4 -5 -9z m705 0 c-34 -11 -60
-11 -35 0 11 5 29 8 40 8 16 0 15 -2 -5 -8z m-4730 -20 c-14 -4 -34 -8 -45 -8
-16 0 -15 2 5 8 14 4 34 8 45 8 16 0 15 -2 -5 -8z m1193 3 c-7 -2 -21 -2 -30
0 -10 3 -4 5 12 5 17 0 24 -2 18 -5z m2762 -3 c-11 -5 -27 -9 -35 -9 -9 0 -8
4 5 9 11 5 27 9 35 9 9 0 8 -4 -5 -9z m690 0 c-11 -5 -27 -9 -35 -9 -9 0 -8 4
5 9 11 5 27 9 35 9 9 0 8 -4 -5 -9z m-3392 -7 c-7 -2 -21 -2 -30 0 -10 3 -4 5
12 5 17 0 24 -2 18 -5z m-1358 -13 c-11 -5 -29 -8 -40 -8 -16 0 -15 2 5 8 34
11 60 11 35 0z m1450 0 c27 -7 27 -8 5 -8 -14 0 -36 4 -50 8 -20 6 -21 8 -5 8
11 0 34 -4 50 -8z m2545 0 c-8 -5 -19 -10 -25 -10 -5 0 -3 5 5 10 8 5 20 10
25 10 6 0 3 -5 -5 -10z m-4085 -20 c-11 -5 -27 -9 -35 -9 -9 0 -8 4 5 9 11 5
27 9 35 9 9 0 8 -4 -5 -9z m1635 0 c20 -6 21 -8 5 -8 -11 0 -29 3 -40 8 -25
11 1 11 35 0z m2390 0 c-8 -5 -19 -10 -25 -10 -5 0 -3 5 5 10 8 5 20 10 25 10
6 0 3 -5 -5 -10z m670 0 c-8 -5 -19 -10 -25 -10 -5 0 -3 5 5 10 8 5 20 10 25
10 6 0 3 -5 -5 -10z m-4775 -20 c-11 -5 -27 -9 -35 -9 -9 0 -8 4 5 9 11 5 27
9 35 9 9 0 8 -4 -5 -9z m1800 0 c13 -5 14 -9 5 -9 -8 0 -24 4 -35 9 -13 5 -14
9 -5 9 8 0 24 -4 35 -9z m2245 0 c-8 -5 -19 -10 -25 -10 -5 0 -3 5 5 10 8 5
20 10 25 10 6 0 3 -5 -5 -10z m670 0 c-8 -5 -19 -10 -25 -10 -5 0 -3 5 5 10 8
5 20 10 25 10 6 0 3 -5 -5 -10z m-4785 -20 c-27 -12 -43 -12 -25 0 8 5 22 9
30 9 10 0 8 -3 -5 -9z m1950 0 c13 -5 14 -9 5 -9 -8 0 -24 4 -35 9 -13 5 -14
9 -5 9 8 0 24 -4 35 -9z m2115 0 c-8 -5 -22 -9 -30 -9 -10 0 -8 3 5 9 27 12
43 12 25 0z m660 0 c-8 -5 -19 -10 -25 -10 -5 0 -3 5 5 10 8 5 20 10 25 10 6
0 3 -5 -5 -10z m-4790 -20 c-8 -5 -22 -9 -30 -9 -10 0 -8 3 5 9 27 12 43 12
25 0z m2085 0 c13 -6 15 -9 5 -9 -8 0 -22 4 -30 9 -18 12 -2 12 25 0z m1985 0
c-8 -5 -19 -10 -25 -10 -5 0 -3 5 5 10 8 5 20 10 25 10 6 0 3 -5 -5 -10z m670
0 c-8 -5 -19 -10 -25 -10 -5 0 -3 5 5 10 8 5 20 10 25 10 6 0 3 -5 -5 -10z
m-6284 -108 c-2 -2 -27 8 -55 22 -59 31 -68 32 -50 9 8 -10 -7 0 -33 22 -27
22 -48 41 -48 42 0 2 43 -18 95 -44 52 -26 93 -49 91 -51z m1484 88 c-8 -5
-22 -9 -30 -9 -10 0 -8 3 5 9 27 12 43 12 25 0z m2237 -6 c-3 -3 -12 -4 -19
-1 -8 3 -5 6 6 6 11 1 17 -2 13 -5z m-2297 -14 c-8 -5 -22 -9 -30 -9 -10 0 -8
3 5 9 27 12 43 12 25 0z m2355 0 c13 -5 14 -9 5 -9 -8 0 -24 4 -35 9 -13 5
-14 9 -5 9 8 0 24 -4 35 -9z m1725 0 c-8 -5 -22 -9 -30 -9 -10 0 -8 3 5 9 27
12 43 12 25 0z m-4140 -20 c-8 -5 -19 -10 -25 -10 -5 0 -3 5 5 10 8 5 20 10
25 10 6 0 3 -5 -5 -10z m2495 0 c13 -5 14 -9 5 -9 -8 0 -24 4 -35 9 -13 5 -14
9 -5 9 8 0 24 -4 35 -9z m1585 0 c-8 -5 -19 -10 -25 -10 -5 0 -3 5 5 10 8 5
20 10 25 10 6 0 3 -5 -5 -10z m690 0 c-8 -5 -19 -10 -25 -10 -5 0 -3 5 5 10 8
5 20 10 25 10 6 0 3 -5 -5 -10z m-4820 -20 c-8 -5 -19 -10 -25 -10 -5 0 -3 5
5 10 8 5 20 10 25 10 6 0 3 -5 -5 -10z m2640 0 c20 -6 21 -8 5 -8 -11 0 -31 4
-45 8 -20 6 -21 8 -5 8 11 0 31 -4 45 -8z m1430 0 c-8 -5 -19 -10 -25 -10 -5
0 -3 5 5 10 8 5 20 10 25 10 6 0 3 -5 -5 -10z m710 6 c0 -2 -7 -7 -16 -10 -8
-3 -12 -2 -9 4 6 10 25 14 25 6z m-6090 -93 c0 -7 -78 56 -87 70 -4 6 14 -6
40 -27 26 -21 47 -40 47 -43z m4055 67 c27 -7 27 -8 5 -8 -14 0 -36 4 -50 8
-20 6 -21 8 -5 8 11 0 34 -4 50 -8z m1265 0 c-8 -5 -22 -9 -30 -9 -10 0 -8 3
5 9 27 12 43 12 25 0z m730 6 c0 -2 -7 -7 -16 -10 -8 -3 -12 -2 -9 4 6 10 25
14 25 6z m-3717 -13 c-18 -2 -48 -2 -65 0 -18 2 -4 4 32 4 36 0 50 -2 33 -4z
m-2298 -21 c-3 -3 -11 0 -18 7 -9 10 -8 11 6 5 10 -3 15 -9 12 -12z m1165 8
c-8 -5 -19 -10 -25 -10 -5 0 -3 5 5 10 8 5 20 10 25 10 6 0 3 -5 -5 -10z m979
6 c-2 -2 -26 -6 -54 -9 -34 -4 -42 -3 -25 3 25 8 87 13 79 6z m336 -7 c20 -5
9 -6 -30 -2 -33 3 -62 7 -64 9 -8 7 63 2 94 -7z m1638 4 c-7 -2 -21 -2 -30 0
-10 3 -4 5 12 5 17 0 24 -2 18 -5z m1102 -3 c-11 -5 -27 -9 -35 -9 -9 0 -8 4
5 9 11 5 27 9 35 9 9 0 8 -4 -5 -9z m755 6 c0 -2 -7 -7 -16 -10 -8 -3 -12 -2
-9 4 6 10 25 14 25 6z m-1792 -13 c-10 -2 -26 -2 -35 0 -10 3 -2 5 17 5 19 0
27 -2 18 -5z m-4138 -13 c8 -5 11 -10 5 -10 -5 0 -17 5 -25 10 -8 5 -10 10 -5
10 6 0 17 -5 25 -10z m1070 0 c-8 -5 -19 -10 -25 -10 -5 0 -3 5 5 10 8 5 20
10 25 10 6 0 3 -5 -5 -10z m890 0 c-34 -11 -60 -11 -35 0 11 5 29 8 40 8 16 0
15 -2 -5 -8z m600 0 c20 -6 21 -8 5 -8 -11 0 -33 4 -50 8 -27 7 -27 8 -5 8 14
0 36 -4 50 -8z m1789 -6 c8 -7 -73 -3 -119 6 -34 6 -25 7 35 3 44 -3 82 -7 84
-9z m746 6 c-11 -5 -31 -8 -45 -8 -23 0 -22 1 5 8 42 11 65 11 40 0z m795 5
c0 -2 -22 -16 -50 -30 -27 -14 -50 -23 -50 -20 0 2 21 16 48 29 53 28 52 28
52 21z m-5840 -25 c8 -5 11 -10 5 -10 -5 0 -17 5 -25 10 -8 5 -10 10 -5 10 6
0 17 -5 25 -10z m1835 0 c-11 -5 -27 -9 -35 -9 -9 0 -8 4 5 9 11 5 27 9 35 9
9 0 8 -4 -5 -9z m770 0 c25 -11 -1 -11 -35 0 -20 6 -21 8 -5 8 11 0 29 -3 40
-8z m1842 3 c-20 -2 -52 -2 -70 0 -17 2 0 4 38 4 39 0 53 -2 32 -4z m496 0
c-13 -2 -33 -2 -45 0 -13 2 -3 4 22 4 25 0 35 -2 23 -4z m-165 -10 c-54 -2
-142 -2 -195 0 -54 1 -10 3 97 3 107 0 151 -2 98 -3z m-4714 -132 c-4 -4 -171
107 -179 119 -3 5 37 -19 88 -53 52 -34 93 -64 91 -66z m846 119 c-8 -5 -19
-10 -25 -10 -5 0 -3 5 5 10 8 5 20 10 25 10 6 0 3 -5 -5 -10z m855 0 c-27 -12
-43 -12 -25 0 8 5 22 9 30 9 10 0 8 -3 -5 -9z m930 0 c25 -11 -1 -11 -35 0
-20 6 -21 8 -5 8 11 0 29 -3 40 -8z m-2580 -20 c13 -6 15 -9 5 -9 -8 0 -22 4
-30 9 -18 12 -2 12 25 0z m735 0 c-8 -5 -19 -10 -25 -10 -5 0 -3 5 5 10 8 5
20 10 25 10 6 0 3 -5 -5 -10z m855 0 c-27 -12 -43 -12 -25 0 8 5 22 9 30 9 10
0 8 -3 -5 -9z m1070 0 c13 -5 14 -9 5 -9 -8 0 -24 4 -35 9 -13 5 -14 9 -5 9 8
0 24 -4 35 -9z m2955 6 c0 -2 -7 -7 -16 -10 -8 -3 -12 -2 -9 4 6 10 25 14 25
6z m-4935 -26 c-27 -12 -43 -12 -25 0 8 5 22 9 30 9 10 0 8 -3 -5 -9z m850 0
c-27 -12 -43 -12 -25 0 8 5 22 9 30 9 10 0 8 -3 -5 -9z m1210 0 c13 -5 14 -9
5 -9 -8 0 -24 4 -35 9 -13 5 -14 9 -5 9 8 0 24 -4 35 -9z m2835 6 c0 -2 -7 -7
-16 -10 -8 -3 -12 -2 -9 4 6 10 25 14 25 6z m-5430 -26 c20 -6 21 -8 5 -8 -11
0 -29 3 -40 8 -25 11 1 11 35 0z m465 0 c-11 -5 -27 -9 -35 -9 -9 0 -8 4 5 9
11 5 27 9 35 9 9 0 8 -4 -5 -9z m855 0 c-8 -5 -22 -9 -30 -9 -10 0 -8 3 5 9
27 12 43 12 25 0z m1355 0 c13 -5 14 -9 5 -9 -8 0 -24 4 -35 9 -13 5 -14 9 -5
9 8 0 24 -4 35 -9z m2705 0 c-8 -5 -19 -10 -25 -10 -5 0 -3 5 5 10 8 5 20 10
25 10 6 0 3 -5 -5 -10z m-5241 -26 c8 -7 -54 -2 -79 6 -17 6 -9 7 25 3 28 -3
52 -7 54 -9z m241 6 c-14 -4 -38 -8 -55 -8 -29 1 -29 1 5 8 50 11 83 11 50 0z
m875 0 c-27 -12 -43 -12 -25 0 8 5 22 9 30 9 10 0 8 -3 -5 -9z m1482 4 c-3 -3
-12 -4 -19 -1 -8 3 -5 6 6 6 11 1 17 -2 13 -5z m2603 2 c0 -2 -7 -7 -16 -10
-8 -3 -12 -2 -9 4 6 10 25 14 25 6z m-2563 -12 c-3 -3 -12 -4 -19 -1 -8 3 -5
6 6 6 11 1 17 -2 13 -5z m-1592 -14 c-11 -5 -27 -9 -35 -9 -9 0 -8 4 5 9 11 5
27 9 35 9 9 0 8 -4 -5 -9z m1670 0 c25 -11 -1 -11 -35 0 -20 6 -21 8 -5 8 11
0 29 -3 40 -8z m2430 0 c-27 -12 -43 -12 -25 0 8 5 22 9 30 9 10 0 8 -3 -5 -9z
m-4185 -20 c-14 -4 -34 -8 -45 -8 -16 0 -15 2 5 8 14 4 34 8 45 8 16 0 15 -2
-5 -8z m1860 0 c20 -6 21 -8 5 -8 -11 0 -33 4 -50 8 -27 7 -27 8 -5 8 14 0 36
-4 50 -8z m2270 0 c-8 -5 -19 -10 -25 -10 -5 0 -3 5 5 10 8 5 20 10 25 10 6 0
3 -5 -5 -10z m-5345 -20 c13 -5 14 -9 5 -9 -8 0 -24 4 -35 9 -13 5 -14 9 -5 9
8 0 24 -4 35 -9z m1128 3 c-7 -2 -19 -2 -25 0 -7 3 -2 5 12 5 14 0 19 -2 13
-5z m2030 0 c-7 -2 -21 -2 -30 0 -10 3 -4 5 12 5 17 0 24 -2 18 -5z m-2076 -9
c-3 -3 -12 -4 -19 -1 -8 3 -5 6 6 6 11 1 17 -2 13 -5z m2126 -1 c-7 -2 -19 -2
-25 0 -7 3 -2 5 12 5 14 0 19 -2 13 -5z m-3128 -13 c25 -11 -1 -11 -35 0 -20
6 -21 8 -5 8 11 0 29 -3 40 -8z m925 0 c-14 -4 -34 -8 -45 -8 -16 0 -15 2 5 8
14 4 34 8 45 8 16 0 15 -2 -5 -8z m2325 0 c42 -11 1 -11 -50 -1 -34 7 -35 9
-10 9 17 0 44 -4 60 -8z m1900 0 c-11 -5 -27 -9 -35 -9 -9 0 -8 4 5 9 11 5 27
9 35 9 9 0 8 -4 -5 -9z m-5040 -20 c27 -7 27 -8 5 -8 -14 0 -36 4 -50 8 -20 6
-21 8 -5 8 11 0 34 -4 50 -8z m710 0 c-16 -4 -41 -8 -55 -8 -22 0 -22 1 5 8
17 4 41 8 55 8 22 0 22 -1 -5 -8z m2543 3 c-10 -2 -26 -2 -35 0 -10 3 -2 5 17
5 19 0 27 -2 18 -5z m1729 1 c-3 -3 -12 -4 -19 -1 -8 3 -5 6 6 6 11 1 17 -2
13 -5z m-1659 -11 c-10 -2 -26 -2 -35 0 -10 3 -2 5 17 5 19 0 27 -2 18 -5z
m1619 1 c-3 -3 -12 -4 -19 -1 -8 3 -5 6 6 6 11 1 17 -2 13 -5z m-4728 -20 c8
-7 -73 -3 -119 6 -34 6 -25 7 35 3 44 -3 82 -7 84 -9z m379 9 c-10 -2 -28 -2
-40 0 -13 2 -5 4 17 4 22 1 32 -1 23 -4z m2897 -3 c40 -6 43 -7 15 -8 -19 0
-57 3 -85 8 -40 6 -43 7 -15 8 19 0 58 -3 85 -8z m1402 4 c-3 -3 -12 -4 -19
-1 -8 3 -5 6 6 6 11 1 17 -2 13 -5z m-4384 -11 c-13 -2 -35 -2 -50 0 -16 2 -5
4 22 4 28 0 40 -2 28 -4z m4344 1 c-3 -3 -12 -4 -19 -1 -8 3 -5 6 6 6 11 1 17
-2 13 -5z m-1189 -11 c-16 -2 -40 -2 -55 0 -16 2 -3 4 27 4 30 0 43 -2 28 -4z
m1107 -3 c-16 -4 -43 -8 -60 -8 -29 1 -29 1 5 8 19 4 46 7 60 8 22 0 22 -1 -5
-8z m-987 -7 c-15 -2 -42 -2 -60 0 -18 2 -6 4 27 4 33 0 48 -2 33 -4z m250
-10 c-26 -2 -71 -2 -100 0 -29 2 -8 3 47 3 55 0 79 -1 53 -3z m579 0 c-20 -2
-52 -2 -70 0 -17 2 0 4 38 4 39 0 53 -2 32 -4z m-204 -10 c-56 -2 -151 -2
-210 0 -59 1 -13 3 102 3 116 0 164 -2 108 -3z"/>
</g>
</svg>
