<?xml version="1.0" standalone="no"?>
<!DOCTYPE svg PUBLIC "-//W3C//DTD SVG 20010904//EN"
 "http://www.w3.org/TR/2001/REC-SVG-20010904/DTD/svg10.dtd">
<svg version="1.0" xmlns="http://www.w3.org/2000/svg"
 width="1280.000000pt" height="960.000000pt" viewBox="0 0 1280.000000 960.000000"
 preserveAspectRatio="xMidYMid meet">
<metadata>
Created by potrace 1.15, written by Peter Selinger 2001-2017
</metadata>
<g transform="translate(0.000000,960.000000) scale(0.100000,-0.100000)"
fill="#000000" stroke="none">
<path d="M8200 9584 c-435 -59 -991 -291 -1367 -570 -111 -83 -307 -283 -386
-394 -73 -104 -179 -310 -222 -433 -15 -42 -42 -132 -60 -199 l-32 -123 -59
-20 c-89 -32 -123 -53 -184 -114 -98 -98 -153 -222 -152 -341 0 -97 27 -183
104 -332 l60 -116 -21 -119 c-12 -65 -21 -121 -21 -126 0 -4 -72 -7 -160 -7
-321 0 -614 -66 -880 -200 -121 -61 -181 -101 -490 -331 -656 -489 -1020 -740
-1410 -971 -435 -259 -905 -458 -1120 -475 -155 -12 -404 32 -895 157 -401
102 -449 108 -475 60 -22 -40 19 -84 179 -190 22 -15 22 -16 6 -53 -40 -96 50
-180 195 -181 63 -1 84 4 133 28 49 24 63 27 83 17 17 -8 24 -19 24 -39 0 -92
143 -142 278 -98 68 23 120 15 158 -25 44 -46 118 -64 203 -48 77 13 212 -1
240 -25 44 -38 86 -50 176 -51 77 0 98 4 149 28 71 33 139 36 193 7 59 -30
136 -42 207 -30 85 13 183 65 221 116 43 59 86 71 164 44 69 -23 108 -25 183
-9 116 25 210 88 259 174 24 43 38 56 79 73 27 11 52 17 55 13 2 -5 -35 -91
-84 -192 -86 -178 -142 -313 -327 -789 -100 -259 -196 -472 -276 -615 -46 -82
-266 -424 -321 -499 -13 -19 -18 -19 -133 -6 -142 16 -329 16 -516 0 -102 -8
-182 -8 -315 0 -167 10 -231 16 -608 57 -209 22 -512 23 -588 1 -65 -18 -305
-148 -382 -206 -27 -21 -54 -50 -60 -66 -8 -25 -6 -31 18 -52 34 -29 74 -30
225 -9 l104 15 31 -24 c46 -34 91 -46 170 -46 87 0 150 27 179 76 11 19 22 34
24 34 2 0 10 -13 19 -30 8 -16 36 -42 63 -57 43 -25 56 -28 144 -28 93 0 98 1
142 33 26 17 50 32 55 32 5 0 20 -15 35 -34 14 -19 52 -47 83 -63 77 -38 188
-40 246 -5 51 29 60 28 91 -13 61 -79 190 -120 288 -91 30 8 62 24 72 35 24
27 80 17 124 -21 18 -15 53 -34 78 -40 24 -7 44 -15 44 -19 0 -10 -113 -104
-180 -149 -126 -86 -296 -151 -495 -189 -434 -85 -684 -170 -883 -301 -137
-90 -202 -175 -204 -265 -1 -86 40 -133 95 -108 12 6 64 45 116 87 110 90 201
146 291 178 62 22 76 23 303 20 268 -3 356 7 512 59 271 91 541 272 854 574
93 90 158 145 177 149 46 11 101 54 120 94 15 32 18 34 24 16 14 -37 37 -47
93 -41 141 17 324 169 286 238 -6 11 -9 22 -7 24 2 2 41 31 88 66 173 127 321
259 561 498 252 253 378 392 591 653 l123 150 7 -33 c54 -246 73 -323 106
-434 219 -720 611 -1325 1149 -1773 l112 -93 -20 -33 c-32 -55 -77 -187 -95
-282 -20 -104 -22 -308 -5 -404 74 -409 397 -734 751 -757 173 -11 349 62 325
136 -8 25 -33 41 -132 80 -46 18 -80 37 -77 42 2 5 0 27 -6 50 -16 59 -83 122
-159 149 -55 20 -61 25 -54 44 23 62 -8 163 -70 229 -36 38 -36 39 -17 59 70
76 65 292 -9 362 -44 43 -29 49 38 16 32 -16 84 -39 115 -50 31 -12 80 -38
109 -58 163 -113 230 -152 402 -237 208 -102 371 -169 510 -209 206 -59 373
-48 350 23 -9 29 -38 43 -234 111 -360 125 -426 159 -571 293 -99 92 -199 169
-403 312 -93 64 -171 123 -174 130 -6 17 111 205 437 700 398 605 491 756 613
1000 117 236 190 457 204 622 3 40 9 73 12 73 4 0 41 -42 82 -92 344 -427 760
-853 1080 -1105 42 -33 101 -85 132 -115 30 -31 79 -67 109 -81 69 -34 185
-152 228 -235 61 -116 181 -199 303 -209 74 -7 187 -60 208 -100 24 -45 117
-121 174 -142 57 -21 151 -27 190 -12 27 11 102 -19 143 -57 18 -17 54 -41 80
-54 43 -21 61 -23 197 -24 155 0 203 -5 293 -31 68 -19 181 -13 315 16 81 17
106 19 147 10 136 -29 310 76 310 189 0 10 22 35 49 55 157 120 314 341 336
474 6 37 3 45 -19 68 -47 47 -80 31 -365 -174 -332 -238 -375 -257 -571 -248
-189 9 -431 67 -635 154 l-90 38 80 7 c191 17 406 64 591 129 174 61 443 197
607 308 171 115 348 200 493 236 69 17 81 17 261 -1 83 -9 131 1 144 30 16 34
-3 61 -62 91 -66 34 -280 95 -331 95 -52 0 -197 -49 -415 -141 -544 -228 -912
-308 -1295 -279 -171 12 -370 35 -493 56 -102 18 -253 60 -274 77 -19 16 -103
193 -158 336 -24 63 -93 277 -153 476 -155 512 -210 663 -349 945 -41 85 -77
158 -79 162 -2 4 39 -11 90 -34 277 -121 521 -198 813 -258 238 -48 358 -86
510 -160 278 -137 482 -351 629 -661 56 -118 129 -326 161 -458 27 -111 72
-141 118 -79 16 22 22 48 25 118 19 391 -242 952 -693 1495 -273 328 -423 429
-1261 844 -771 382 -1042 539 -1479 856 -77 56 -157 112 -178 124 -21 13 -36
25 -34 27 2 2 73 -8 158 -21 201 -33 355 -42 445 -25 229 41 504 279 680 587
68 119 118 258 173 483 85 344 114 556 113 830 0 289 -37 480 -132 675 -196
405 -584 581 -1120 509z m-1892 -4850 c100 -50 270 -241 370 -414 146 -256
198 -488 158 -705 -60 -315 -244 -929 -428 -1425 -44 -118 -81 -217 -83 -219
-10 -10 -157 385 -270 724 -153 456 -265 865 -295 1069 -39 263 94 594 363
905 90 104 100 107 185 65z"/>
</g>
</svg>
